<svg width="212" height="212" viewBox="0 0 212 212" fill="none" xmlns="http://www.w3.org/2000/svg">
<path d="M0 24C0 10.7452 10.7452 0 24 0H188C201.255 0 212 10.7452 212 24V188C212 201.255 201.255 212 188 212H24C10.7452 212 0 201.255 0 188V24Z" fill="black" fill-opacity="0.1"/>
<path d="M62.4808 83.4H80.5688C83.4248 84.352 85.8501 86.12 87.8448 88.704C89.8848 91.2427 90.9048 94.3707 90.9048 98.088C90.9048 104.163 88.5021 108.628 83.6968 111.484L90.5648 131H81.0448L75.2648 113.66H71.6608V131H62.4808V83.4ZM71.6608 91.56V106.044H77.5088C78.2795 105.863 79.1181 105.092 80.0248 103.732C80.9768 102.327 81.4528 100.695 81.4528 98.836C81.4528 96.9773 81.0448 95.3453 80.2288 93.94C79.4581 92.5347 78.6875 91.7413 77.9168 91.56H71.6608Z" fill="white"/>
<path d="M114.422 131H99.5982C95.0648 126.784 92.7982 121.027 92.7982 113.728C92.7982 110.056 93.2968 106.86 94.2942 104.14C95.3368 101.42 96.9688 98.7907 99.1902 96.252H115.102C117.46 98.972 119.069 101.624 119.93 104.208C120.792 106.747 121.222 109.92 121.222 113.728C121.222 121.027 118.956 126.784 114.422 131ZM104.426 123.86H109.594C111.226 120.687 112.042 117.083 112.042 113.048C112.042 109.013 111.204 105.795 109.526 103.392H104.426C102.794 105.704 101.978 108.991 101.978 113.252C101.978 117.468 102.794 121.004 104.426 123.86Z" fill="white"/>
<path d="M135.066 83.4V131H126.09V83.4H135.066Z" fill="white"/>
<path d="M149.875 83.4V131H140.899V83.4H149.875Z" fill="white"/>
</svg>
