<svg width="212" height="212" viewBox="0 0 212 212" fill="none" xmlns="http://www.w3.org/2000/svg">
<path d="M0 24C0 10.7452 10.7452 0 24 0H188C201.255 0 212 10.7452 212 24V188C212 201.255 201.255 212 188 212H24C10.7452 212 0 201.255 0 188V24Z" fill="black" fill-opacity="0.1"/>
<path d="M169 65C169 76.598 159.598 86 148 86C136.402 86 127 76.598 127 65C127 53.402 136.402 44 148 44C159.598 44 169 53.402 169 65Z" fill="white"/>
<path d="M85 147C85 158.598 75.598 168 64 168C52.402 168 43 158.598 43 147C43 135.402 52.402 126 64 126C75.598 126 85 135.402 85 147Z" fill="white"/>
</svg>
