<svg width="212" height="212" viewBox="0 0 212 212" fill="none" xmlns="http://www.w3.org/2000/svg">
<path d="M0 24C0 10.7452 10.7452 0 24 0H188C201.255 0 212 10.7452 212 24V188C212 201.255 201.255 212 188 212H24C10.7452 212 0 201.255 0 188V24Z" fill="black" fill-opacity="0.1"/>
<path d="M85 52C85 63.598 75.598 73 64 73C52.402 73 43 63.598 43 52C43 40.402 52.402 31 64 31C75.598 31 85 40.402 85 52Z" fill="white"/>
<path d="M85 105C85 116.598 75.598 126 64 126C52.402 126 43 116.598 43 105C43 93.402 52.402 84 64 84C75.598 84 85 93.402 85 105Z" fill="white"/>
<path d="M85 158C85 169.598 75.598 179 64 179C52.402 179 43 169.598 43 158C43 146.402 52.402 137 64 137C75.598 137 85 146.402 85 158Z" fill="white"/>
<path d="M169 52C169 63.598 159.598 73 148 73C136.402 73 127 63.598 127 52C127 40.402 136.402 31 148 31C159.598 31 169 40.402 169 52Z" fill="white"/>
<path d="M169 105C169 116.598 159.598 126 148 126C136.402 126 127 116.598 127 105C127 93.402 136.402 84 148 84C159.598 84 169 93.402 169 105Z" fill="white"/>
<path d="M169 158C169 169.598 159.598 179 148 179C136.402 179 127 169.598 127 158C127 146.402 136.402 137 148 137C159.598 137 169 146.402 169 158Z" fill="white"/>
</svg>
