<?xml version="1.0" encoding="iso-8859-1"?>
<!-- Uploaded to: SVG Repo, www.svgrepo.com, Generator: SVG Repo Mixer Tools -->
<svg height="800px" width="800px" version="1.1" id="Layer_1" xmlns="http://www.w3.org/2000/svg" xmlns:xlink="http://www.w3.org/1999/xlink" 
	 viewBox="0 0 512 512" xml:space="preserve">
<path style="fill:#83D8DD;" d="M87.57,487.604c58.845,33.975,134.092,13.813,168.067-45.033
	c41.95-72.658,18.007-201.411,8.762-242.684c-1.613-7.203-9.026-11.483-16.072-9.279c-40.366,12.631-163.84,56.271-205.79,128.93
	C8.561,378.382,28.724,453.629,87.57,487.604z"/>
<path style="opacity:0.1;enable-background:new    ;" d="M101.805,483.789c-58.845-33.975-79.008-109.22-45.033-168.067
	C95.673,248.343,204.67,205.923,252.498,190.04c-1.373-0.043-2.779,0.13-4.171,0.565c-40.366,12.631-163.84,56.271-205.79,128.93
	C8.561,378.382,28.724,453.629,87.57,487.602c31.719,18.313,68.201,20.888,100.418,10.163
	C159.541,503.599,128.931,499.451,101.805,483.789z"/>
<g>
	<path style="opacity:0.2;fill:#FFFFFF;enable-background:new    ;" d="M264.398,199.886c-1.613-7.203-9.026-11.483-16.071-9.279
		c-3.217,1.007-6.965,2.211-11.153,3.611c-0.558,0.904-1.108,1.816-1.643,2.744c-29.688,51.421-12.069,117.172,39.351,146.86
		c1.432,0.827,2.878,1.612,4.332,2.366C281.879,286.633,270.223,225.893,264.398,199.886z"/>
	<circle style="opacity:0.2;fill:#FFFFFF;enable-background:new    ;" cx="231.09" cy="355.288" r="23.821"/>
</g>
<path style="fill:#83D8DD;" d="M348.578,259.394c42.057,24.282,95.836,9.872,120.118-32.185
	c29.981-51.929,12.87-143.949,6.262-173.447c-1.154-5.149-6.451-8.207-11.486-6.632c-28.85,9.026-117.097,40.217-147.079,92.146
	C292.112,181.334,306.521,235.112,348.578,259.394z"/>
<path style="opacity:0.1;enable-background:new    ;" d="M358.752,256.668c-42.057-24.282-56.467-78.06-32.185-120.118
	c27.803-48.156,105.704-78.474,139.886-89.825c-0.981-0.031-1.986,0.093-2.981,0.404c-28.85,9.026-117.097,40.217-147.079,92.146
	c-24.282,42.057-9.872,95.836,32.185,120.118c22.67,13.089,48.744,14.929,71.769,7.264
	C400.017,270.826,378.14,267.861,358.752,256.668z"/>
<g>
	<path style="opacity:0.2;fill:#FFFFFF;enable-background:new    ;" d="M474.958,53.762c-1.154-5.149-6.451-8.207-11.486-6.632
		c-2.299,0.72-4.978,1.58-7.971,2.581c-0.399,0.647-0.792,1.299-1.174,1.96c-21.217,36.75-8.626,83.743,28.124,104.961
		c1.024,0.592,2.057,1.152,3.096,1.69C487.451,115.76,479.122,72.349,474.958,53.762z"/>
	<circle style="opacity:0.2;fill:#FFFFFF;enable-background:new    ;" cx="451.15" cy="164.825" r="17.021"/>
</g>
<path style="fill:#83D8DD;" d="M86.565,165.479c31.155,17.987,70.992,7.312,88.979-23.841
	c22.209-38.467,9.533-106.633,4.639-128.485c-0.854-3.814-4.778-6.079-8.509-4.913c-21.371,6.687-86.741,29.792-108.95,68.26
	C44.737,107.654,55.411,147.492,86.565,165.479z"/>
<path style="opacity:0.1;enable-background:new    ;" d="M94.102,163.459c-31.155-17.987-41.829-57.825-23.842-88.979
	c20.595-35.673,78.302-58.131,103.623-66.54c-0.727-0.023-1.471,0.069-2.208,0.3C150.303,14.927,84.933,38.032,62.724,76.5
	c-17.987,31.155-7.312,70.992,23.841,88.979c16.793,9.695,36.108,11.059,53.164,5.381
	C124.67,173.949,108.463,171.751,94.102,163.459z"/>
<g>
	<path style="opacity:0.2;fill:#FFFFFF;enable-background:new    ;" d="M180.184,13.153c-0.854-3.814-4.778-6.079-8.509-4.913
		c-1.703,0.532-3.688,1.171-5.905,1.912c-0.295,0.478-0.586,0.962-0.87,1.452c-15.717,27.224-6.39,62.035,20.833,77.752
		c0.759,0.438,1.523,0.853,2.294,1.252C189.438,59.08,183.268,26.923,180.184,13.153z"/>
	<circle style="opacity:0.2;fill:#FFFFFF;enable-background:new    ;" cx="162.549" cy="95.427" r="12.613"/>
</g>
<path d="M82.596,172.354c11.261,6.502,23.756,9.822,36.419,9.822c6.346,0,12.737-0.835,19.031-2.521
	c18.856-5.051,34.613-17.144,44.373-34.048c10.285-17.813,14.839-42.968,13.54-74.767c-1.026-25.09-5.471-47.998-8.03-59.421
	c-0.89-3.978-3.424-7.428-6.952-9.465c-3.529-2.037-7.785-2.507-11.673-1.289c-11.172,3.495-33.233,11.099-55.476,22.756
	C85.64,38.194,66.133,54.718,55.849,72.53C35.701,107.427,47.701,152.207,82.596,172.354z M69.599,80.469
	c20.453-35.425,82.461-57.661,103.136-64.238c2.475,11.288,6.424,32.351,7.361,55.257c1.175,28.746-2.669,51.012-11.426,66.18
	c-15.768,27.314-50.819,36.706-78.134,20.936C63.222,142.834,53.83,107.783,69.599,80.469z M272.144,198.15
	c-1.253-5.593-4.816-10.444-9.776-13.307c-4.96-2.863-10.943-3.524-16.413-1.812c-20.877,6.531-62.098,20.739-103.616,42.499
	c-52.04,27.275-87.932,57.568-106.679,90.038c-36.11,62.542-14.604,142.8,47.939,178.91C104.176,506.358,126.658,512,148.866,512
	c45.297,0,89.416-23.493,113.646-65.46c18.747-32.47,27.035-78.699,24.635-137.405C285.233,262.295,276.926,219.494,272.144,198.15z
	 M248.761,438.601c-31.733,54.96-102.26,73.859-157.222,42.128c-54.96-31.732-73.859-102.26-42.128-157.221
	c17.219-29.824,50.964-58.057,100.299-83.914c40.417-21.182,80.62-35.037,100.986-41.409c1.707-0.532,3.071,0.028,3.732,0.41
	s1.83,1.284,2.222,3.027c4.664,20.824,12.769,62.565,14.631,108.161C273.557,365.435,265.98,408.776,248.761,438.601z
	 M115.764,331.13c2.602-4.507,3.293-9.759,1.947-14.786c-1.346-5.027-4.571-9.229-9.078-11.831
	c-9.306-5.373-21.244-2.173-26.618,7.131c-2.192,3.797-0.892,8.653,2.905,10.845c3.797,2.192,8.653,0.892,10.846-2.905
	c0.995-1.722,3.205-2.315,4.928-1.321c1.125,0.65,1.536,1.651,1.68,2.19c0.145,0.539,0.29,1.611-0.36,2.736
	c-2.192,3.797-0.891,8.652,2.906,10.845c1.251,0.722,2.616,1.065,3.962,1.065C111.625,335.102,114.295,333.677,115.764,331.13z
	 M482.705,52.025c-1.034-4.613-3.974-8.614-8.065-10.977s-9.028-2.907-13.538-1.496c-35.338,11.058-120.849,42.521-151.585,95.754
	c-26.432,45.781-10.69,104.531,35.091,130.963c14.773,8.53,31.166,12.886,47.78,12.886c8.326,0,16.71-1.096,24.969-3.308
	c24.736-6.628,45.409-22.492,58.213-44.668C506.306,177.946,490.798,88.158,482.705,52.025z M461.82,223.238
	c-10.684,18.504-27.934,31.74-48.572,37.271c-20.64,5.53-42.197,2.692-60.701-7.991c-38.198-22.055-51.333-71.074-29.279-109.272
	c28.724-49.75,116.39-80.346,142.574-88.539c0.299-0.093,0.589-0.064,0.86,0.093c0.269,0.156,0.44,0.391,0.509,0.697
	C473.208,82.269,490.543,173.49,461.82,223.238z M235.598,377.818c-4.508-2.604-9.758-3.293-14.786-1.947
	c-5.027,1.346-9.229,4.571-11.831,9.078c-2.192,3.797-0.891,8.652,2.906,10.845c3.797,2.191,8.654,0.891,10.845-2.906
	c0.995-1.722,3.207-2.313,4.926-1.32c1.126,0.65,1.536,1.651,1.68,2.19c0.145,0.539,0.29,1.611-0.36,2.736
	c-2.192,3.797-0.891,8.653,2.906,10.845c1.251,0.722,2.616,1.065,3.962,1.065c2.744,0,5.412-1.425,6.883-3.971
	c2.602-4.507,3.293-9.759,1.947-14.786C243.33,384.621,240.105,380.42,235.598,377.818z M182.186,387.203
	c-3.8-2.192-8.654-0.891-10.845,2.907c-1.06,1.834-2.769,3.147-4.816,3.695c-2.049,0.548-4.184,0.266-6.019-0.793
	c-3.787-2.187-5.091-7.048-2.904-10.835c0.722-1.249,1.065-2.614,1.065-3.96c0.001-2.744-1.424-5.413-3.971-6.885
	c-3.8-2.191-8.655-0.891-10.845,2.907c-1.06,1.834-2.769,3.147-4.816,3.695c-2.047,0.548-4.185,0.266-6.019-0.793
	c-1.834-1.06-3.147-2.77-3.695-4.816c-0.548-2.046-0.267-4.183,0.793-6.018c2.192-3.797,0.892-8.653-2.906-10.846
	c-3.796-2.194-8.653-0.891-10.845,2.906c-3.18,5.508-4.026,11.924-2.379,18.067c1.646,6.143,5.585,11.278,11.092,14.458
	c5.125,2.959,11.04,3.895,16.785,2.685c1.764,5.373,5.432,10.142,10.703,13.185c3.669,2.118,7.739,3.2,11.866,3.2
	c2.067,0,4.151-0.272,6.201-0.821c6.144-1.646,11.277-5.586,14.456-11.094C187.285,394.251,185.983,389.395,182.186,387.203z"/>
</svg>