<?xml version="1.0" encoding="iso-8859-1"?>

<svg height="800px" width="800px" version="1.1" id="Layer_1" xmlns="http://www.w3.org/2000/svg" xmlns:xlink="http://www.w3.org/1999/xlink"
	 viewBox="0 0 512.001 512.001" xml:space="preserve">
<g>
	<path style="fill:#83D8DD;" d="M456.097,160.686h-91.549c-7.308,0-13.234-5.926-13.234-13.234V55.902
		c0-7.31,5.926-13.234,13.234-13.234s13.234,5.925,13.234,13.234v78.315h78.315c7.308,0,13.234,5.925,13.234,13.234
		C469.331,154.761,463.407,160.686,456.097,160.686z"/>
	<path style="fill:#83D8DD;" d="M147.452,160.686H55.903c-7.308,0-13.234-5.925-13.234-13.234c0-7.308,5.926-13.234,13.234-13.234
		h78.315V55.902c0-7.31,5.926-13.234,13.234-13.234c7.308,0,13.234,5.925,13.234,13.234v91.55
		C160.686,154.761,154.76,160.686,147.452,160.686z"/>
</g>
<path style="opacity:0.15;enable-background:new    ;" d="M134.218,124.116v10.101H77.378l26.468,26.468h43.605
	c6.339,0,11.631-4.459,12.925-10.411L134.218,124.116z"/>
<g>
	<path style="fill:#83D8DD;" d="M147.452,469.332c-7.308,0-13.234-5.925-13.234-13.234v-78.316H55.903
		c-7.308,0-13.234-5.926-13.234-13.234c0-7.31,5.926-13.234,13.234-13.234h91.549c7.308,0,13.234,5.925,13.234,13.234v91.55
		C160.686,463.407,154.76,469.332,147.452,469.332z"/>
	<path style="fill:#83D8DD;" d="M364.549,469.332c-7.308,0-13.234-5.925-13.234-13.234v-91.55c0-7.31,5.926-13.234,13.234-13.234
		h91.549c7.309,0,13.234,5.925,13.234,13.234c0,7.308-5.926,13.234-13.234,13.234h-78.315v78.316
		C377.783,463.407,371.858,469.332,364.549,469.332z"/>
</g>
<path style="opacity:0.15;enable-background:new    ;" d="M361.724,351.624c-5.951,1.295-10.411,6.585-10.411,12.925v43.607
	l26.468,26.468v-56.841h10.1L361.724,351.624z"/>
<path style="fill:#D5EBEF;" d="M468.254,220.194H325.277l106.128-106.128c9.243-9.243,9.243-24.228,0-33.471l0,0
	c-9.243-9.243-24.228-9.243-33.471,0L291.806,186.723V43.747c0-19.775-16.03-35.805-35.805-35.805
	c-19.775,0-35.805,16.031-35.805,35.805v142.976L114.068,80.595c-9.243-9.243-24.228-9.243-33.471,0l0,0
	c-9.243,9.243-9.243,24.228,0,33.471l106.128,106.128H43.748c-19.775,0-35.805,16.03-35.805,35.805s16.031,35.805,35.805,35.805
	h142.976L80.596,397.933c-9.243,9.243-9.243,24.228,0,33.471l0,0c9.243,9.243,24.228,9.243,33.471,0l106.128-106.128v142.976
	c0,19.775,16.03,35.806,35.805,35.806s35.805-16.031,35.805-35.806V325.277l106.128,106.128c9.243,9.243,24.228,9.243,33.471,0
	c9.243-9.243,9.243-24.228,0-33.471L325.276,291.806h142.976c19.775,0,35.806-16.03,35.806-35.805
	C504.06,236.224,488.029,220.194,468.254,220.194z"/>
<path style="opacity:0.05;enable-background:new    ;" d="M85.525,76.843c-1.759,1.014-3.425,2.248-4.929,3.752l0,0
	c-9.243,9.243-9.243,24.228,0,33.471l106.128,106.128h17.398L89.277,105.386C81.539,97.646,80.306,85.893,85.525,76.843z
	 M228.876,35.065c0-7.671,2.42-14.771,6.527-20.598c-9.195,6.481-15.208,17.175-15.208,29.279v142.976l8.681,8.667V35.065z
	 M89.277,422.723L89.277,422.723c-9.243-9.243-9.243-24.228,0-33.471l-8.682,8.681c-9.243,9.243-9.243,24.228,0,33.471
	c9.243,9.243,24.228,9.243,33.471,0l8.682-8.682C113.506,431.966,98.52,431.966,89.277,422.723z M16.623,247.319
	c0-7.671,2.42-14.771,6.526-20.598c-9.195,6.481-15.208,17.174-15.208,29.278c0,19.775,16.031,35.805,35.806,35.805h142.976
	l8.681-8.682H52.428C32.653,283.124,16.623,267.094,16.623,247.319z M476.935,283.124H316.613l8.682,8.682h142.959
	c12.105,0,22.799-6.013,29.279-15.208C491.707,280.705,484.605,283.124,476.935,283.124z M406.615,422.723L291.805,308.054v17.222
	l106.128,106.128c9.243,9.243,24.228,9.243,33.471,0c1.503-1.503,2.737-3.171,3.752-4.929
	C426.107,431.695,414.354,430.461,406.615,422.723z M228.876,459.571V316.595l-8.681,8.682v142.976
	c0,19.775,16.03,35.807,35.805,35.807c12.105,0,22.798-6.013,29.279-15.208c-5.826,4.107-12.928,6.526-20.598,6.526
	C244.907,495.378,228.876,479.346,228.876,459.571z"/>
<g>
	<path style="opacity:0.4;fill:#FFFFFF;enable-background:new    ;" d="M260.031,8.172c-5.931,8.616-9.411,19.05-9.411,30.3
		c0,25.31,17.577,46.5,41.187,52.068V43.747C291.806,25.335,277.907,10.177,260.031,8.172z"/>
	<path style="opacity:0.4;fill:#FFFFFF;enable-background:new    ;" d="M468.254,220.194H426.37
		c0.002,29.55,23.958,53.505,53.51,53.505c7.726,0,15.062-1.651,21.695-4.597c1.598-4.059,2.485-8.476,2.485-13.103
		C504.06,236.224,488.029,220.194,468.254,220.194z"/>
	<path style="opacity:0.4;fill:#FFFFFF;enable-background:new    ;" d="M431.404,80.595L431.404,80.595
		c-9.243-9.243-24.228-9.243-33.471,0l-9.574,9.574c-0.274,1.824-0.418,3.691-0.418,5.591c0,16.721,11.006,30.87,26.168,35.601
		l17.296-17.296C440.647,104.823,440.647,89.838,431.404,80.595z"/>
</g>
<path d="M351.345,268.321c4.386,0,7.941-3.555,7.941-7.941v-8.767c0-4.385-3.554-7.941-7.941-7.941s-7.941,3.555-7.941,7.941v8.767
	C343.404,264.766,346.959,268.321,351.345,268.321z M511.999,255.999c0-24.122-19.625-43.746-43.746-43.746H344.447l43.627-43.627
	h68.023c11.676,0,21.175-9.499,21.175-21.175c0-11.676-9.499-21.175-21.175-21.175h-25.673l6.596-6.596
	c12.324-12.324,12.324-32.376,0-44.701c-12.325-12.324-32.375-12.324-44.702,0l-6.595,6.595V55.902
	c0-11.676-9.499-21.175-21.175-21.175c-11.676,0-21.175,9.499-21.175,21.175v68.022l-43.627,43.628V43.747
	C299.746,19.625,280.121,0,256,0s-43.746,19.625-43.746,43.747v123.807l-43.627-43.627V55.902c0-11.676-9.499-21.175-21.175-21.175
	s-21.175,9.499-21.175,21.175v25.674l-6.596-6.595c-5.97-5.97-13.908-9.258-22.35-9.258c-8.443,0-16.381,3.287-22.349,9.258
	c-5.971,5.97-9.259,13.908-9.259,22.35s3.287,16.381,9.258,22.35l6.596,6.596H55.903c-11.676,0-21.175,9.499-21.175,21.175
	s9.499,21.175,21.175,21.175h68.023l43.627,43.627H43.748c-24.121,0-43.746,19.625-43.746,43.746s19.625,43.746,43.746,43.746
	h123.807l-43.626,43.627H55.904c-11.676,0-21.175,9.499-21.175,21.175c0,11.676,9.499,21.175,21.175,21.175h25.675l-6.596,6.596
	c-5.971,5.97-9.259,13.908-9.259,22.35c0,8.442,3.287,16.381,9.258,22.35c5.97,5.97,13.908,9.258,22.35,9.258
	s16.381-3.287,22.35-9.258l6.596-6.595v25.674c0,11.676,9.499,21.175,21.175,21.175c11.676,0,21.175-9.499,21.175-21.175v-68.024
	l43.627-43.627v123.807c0,24.122,19.625,43.747,43.746,43.747c24.121,0,43.746-19.625,43.746-43.747V344.446l43.627,43.627v68.024
	c0,11.676,9.499,21.175,21.175,21.175c11.676,0,21.175-9.499,21.175-21.175v-25.674l6.596,6.595c5.97,5.97,13.908,9.258,22.35,9.258
	s16.381-3.287,22.35-9.258c12.324-12.324,12.324-32.376,0-44.7l-6.596-6.596h25.673c11.676,0,21.175-9.499,21.175-21.175
	c0-11.676-9.499-21.175-21.175-21.175h-68.023l-43.627-43.627h123.807C492.375,299.746,511.999,280.122,511.999,255.999z
	 M456.097,142.158c2.919,0,5.294,2.375,5.294,5.294c0,2.919-2.375,5.294-5.294,5.294h-52.142l10.587-10.587H456.097z
	 M359.255,55.902c0-2.919,2.375-5.294,5.294-5.294c2.919,0,5.294,2.375,5.294,5.294v41.554l-10.587,10.587V55.902z M142.158,55.902
	c0-2.919,2.375-5.294,5.294-5.294s5.294,2.375,5.294,5.294v52.143l-10.587-10.587V55.902z M55.903,152.745
	c-2.919,0-5.294-2.375-5.294-5.294c0-2.919,2.375-5.294,5.294-5.294h41.554l10.587,10.587H55.903z M55.903,369.841
	c-2.919,0-5.294-2.375-5.294-5.294c0-2.919,2.375-5.294,5.294-5.294h52.143l-10.587,10.587H55.903z M152.746,456.098
	c0,2.919-2.375,5.294-5.294,5.294s-5.294-2.375-5.294-5.294v-41.555l10.587-10.587V456.098z M369.843,456.098
	c0,2.919-2.375,5.294-5.294,5.294c-2.919,0-5.294-2.375-5.294-5.294v-52.143l10.587,10.587V456.098z M456.097,359.254
	c2.919,0,5.294,2.375,5.294,5.294c0,2.919-2.375,5.294-5.294,5.294h-41.554l-10.587-10.587H456.097z M319.662,297.42
	l106.127,106.128c6.132,6.132,6.132,16.11,0,22.241c-2.97,2.971-6.919,4.607-11.12,4.607s-8.15-1.636-11.121-4.607L297.421,319.662
	c-2.272-2.271-5.688-2.952-8.654-1.722c-2.968,1.229-4.902,4.125-4.902,7.336v142.976c0,15.365-12.501,27.866-27.865,27.866
	s-27.865-12.501-27.865-27.866V325.277c0-3.211-1.934-6.107-4.902-7.336c-0.982-0.407-2.014-0.605-3.036-0.605
	c-2.067,0-4.097,0.807-5.618,2.326L108.451,425.789c-2.97,2.971-6.919,4.607-11.12,4.607c-4.201,0-8.15-1.636-11.121-4.607
	c-2.971-2.97-4.607-6.919-4.607-11.12c0-4.201,1.636-8.15,4.608-11.121L192.338,297.42c2.271-2.271,2.95-5.686,1.72-8.653
	c-1.228-2.968-4.124-4.902-7.336-4.902H43.748c-15.365,0-27.866-12.501-27.866-27.866s12.501-27.865,27.865-27.865h142.976
	c3.211,0,6.108-1.934,7.336-4.902c1.229-2.968,0.551-6.382-1.72-8.653L86.21,108.452c-2.971-2.971-4.607-6.92-4.607-11.121
	c0-4.201,1.636-8.15,4.608-11.121c6.131-6.131,16.109-6.131,22.24,0l106.128,106.128c2.272,2.271,5.685,2.951,8.654,1.722
	c2.968-1.229,4.902-4.125,4.902-7.336V43.747c0-15.365,12.501-27.866,27.865-27.866s27.865,12.501,27.865,27.866v142.976
	c0,3.211,1.934,6.107,4.902,7.336s6.382,0.549,8.654-1.722L403.548,86.211c6.134-6.133,16.112-6.132,22.242,0
	c6.132,6.131,6.132,16.109,0,22.241L319.663,214.58c-2.271,2.271-2.95,5.686-1.72,8.653c1.228,2.968,4.125,4.902,7.336,4.902
	h142.976c15.365,0,27.865,12.501,27.865,27.865s-12.501,27.865-27.865,27.865H325.277c-3.211,0-6.108,1.934-7.336,4.902
	C316.712,291.734,317.392,295.149,319.662,297.42z M160.663,243.673c-4.386,0-7.941,3.555-7.941,7.941v8.767
	c0,4.385,3.554,7.941,7.941,7.941c4.386,0,7.941-3.555,7.941-7.941v-8.767C168.603,247.228,165.048,243.673,160.663,243.673z
	 M297.287,239.452c-4.386,0-7.941,3.555-7.941,7.941c0,7.004-5.698,12.702-12.702,12.702c-7.003,0-12.701-5.698-12.701-12.702
	c0-4.385-3.554-7.941-7.941-7.941c-4.385,0-7.941,3.555-7.941,7.941c0,7.004-5.698,12.702-12.701,12.702
	c-7.004,0-12.702-5.698-12.702-12.702c0-4.385-3.554-7.941-7.941-7.941s-7.941,3.555-7.941,7.941
	c0,15.76,12.821,28.583,28.583,28.583c8.106,0,15.434-3.392,20.641-8.831c5.207,5.44,12.535,8.831,20.641,8.831
	c15.761,0,28.583-12.822,28.583-28.583C305.227,243.008,301.673,239.452,297.287,239.452z"/>
</svg>