<?xml version="1.0" encoding="utf-8"?><!-- Uploaded to: SVG Repo, www.svgrepo.com, Generator: SVG Repo Mixer Tools -->
<svg fill="#000000" width="800px" height="800px" viewBox="0 0 24 24" id="vision" data-name="Flat Line" xmlns="http://www.w3.org/2000/svg" class="icon flat-line"><path id="secondary" d="M12,6c-6,0-9,6-9,6s3,6,9,6,9-6,9-6S18,6,12,6Zm0,8a2,2,0,1,1,2-2A2,2,0,0,1,12,14Z" style="fill: rgb(44, 169, 188); stroke-width: 2;"></path><path id="primary" d="M10,12a2,2,0,1,1,2,2A2,2,0,0,1,10,12Zm2-6c-6,0-9,6-9,6s3,6,9,6,9-6,9-6S18,6,12,6Z" style="fill: none; stroke: rgb(0, 0, 0); stroke-linecap: round; stroke-linejoin: round; stroke-width: 2;"></path></svg>