<?xml version="1.0" encoding="iso-8859-1"?>
<!-- Uploaded to: SVG Repo, www.svgrepo.com, Generator: SVG Repo Mixer Tools -->
<svg version="1.1" id="Layer_1" xmlns="http://www.w3.org/2000/svg" xmlns:xlink="http://www.w3.org/1999/xlink" 
	 viewBox="0 0 512 512" xml:space="preserve">
<path style="fill:#394049;" d="M28.206,19.89L28.206,19.89c-11.187,0-20.255,9.069-20.255,20.255v446.459
	c0,3.04,2.465,5.505,5.505,5.505h29.5c3.04,0,5.505-2.465,5.505-5.505V40.145C48.461,28.959,39.392,19.89,28.206,19.89z"/>
<path style="fill:#EC8560;" d="M486.259,208.581L144.59,231.98c-10.664,0.73-19.716-7.722-19.716-18.412V96.408
	c0-10.688,9.052-19.142,19.716-18.412l341.669,23.399c10.016,0.686,17.791,9.011,17.791,19.051v69.083
	C504.05,199.57,496.275,207.895,486.259,208.581z"/>
<g>
	<polygon style="fill:#DBE7F2;" points="251.266,85.302 251.266,224.674 377.658,216.019 377.658,93.958 	"/>
	<rect x="7.95" y="72.846" style="fill:#DBE7F2;" width="40.515" height="164.285"/>
</g>
<path style="opacity:0.3;enable-background:new    ;" d="M19.284,486.281c-3.04,0-5.505-2.465-5.505-5.505V34.317
	c0-4.102,1.229-7.913,3.324-11.103c-5.51,3.62-9.153,9.846-9.153,16.931v446.459c0,3.04,2.465,5.506,5.505,5.506h29.5
	c3.04,0,5.505-2.465,5.505-5.506v-0.323H19.284z"/>
<path style="opacity:0.1;enable-background:new    ;" d="M500.037,193.743l-341.669,23.399c-10.664,0.73-19.716-7.723-19.716-18.412
	V81.57c0-1.056,0.112-2.081,0.282-3.086c-8.021,1.963-14.059,9.196-14.059,17.924v117.16c0,10.688,9.052,19.142,19.716,18.412
	l341.669-23.399c8.79-0.602,15.85-7.087,17.448-15.451C502.526,193.447,501.3,193.656,500.037,193.743z"/>
<path style="opacity:0.2;fill:#FFFFFF;enable-background:new    ;" d="M30.263,19.994c-5.173,7.616-8.197,16.811-8.197,26.712
	c0,18.668,10.752,34.818,26.395,42.619v-49.18C48.461,29.653,40.483,21.025,30.263,19.994z"/>
<path d="M486.802,93.464L145.132,70.065c-7.268-0.5-14.498,2.069-19.826,7.045c-3.553,3.319-6.089,7.555-7.388,12.17l-61.507,7.841
	V40.145c0-15.553-12.654-28.206-28.206-28.206C12.653,11.94,0,24.592,0,40.145v446.459c0,7.419,6.036,13.456,13.455,13.456h29.5
	c7.419,0,13.455-6.036,13.455-13.456V212.856l61.507,7.841c1.3,4.615,3.835,8.852,7.388,12.17c4.891,4.568,11.382,7.105,18.04,7.105
	c0.595,0,1.19-0.02,1.787-0.061l341.669-23.399C500.932,215.545,512,203.693,512,189.53v-69.083
	C512,106.283,500.932,94.432,486.802,93.464z M40.511,484.159h-24.61V40.145c0-6.785,5.52-12.305,12.304-12.305
	c6.785,0,12.305,5.52,12.305,12.305v444.013H40.511z M116.924,204.541l-60.512-7.714v-83.675l60.512-7.714V204.541z M496.099,189.53
	c0,5.837-4.561,10.72-10.384,11.119l-341.669,23.399c-2.937,0.205-5.736-0.794-7.886-2.803c-2.151-2.009-3.335-4.735-3.335-7.678
	V96.408c0-2.943,1.184-5.669,3.335-7.678c1.968-1.838,4.483-2.828,7.146-2.828c0.245,0,0.494,0.008,0.741,0.025l341.669,23.399
	c5.823,0.399,10.384,5.282,10.384,11.119v69.084H496.099z M219.003,118.467c-4.392,0-7.95,3.56-7.95,7.95v8.778
	c0,4.391,3.559,7.95,7.95,7.95s7.95-3.56,7.95-7.95v-8.778C226.954,122.026,223.394,118.467,219.003,118.467z M409.92,118.467
	c-4.391,0-7.95,3.56-7.95,7.95v8.778c0,4.391,3.56,7.95,7.95,7.95c4.392,0,7.95-3.56,7.95-7.95v-8.778
	C417.87,122.026,414.312,118.467,409.92,118.467z M355.797,158.125c-4.392,0-7.95,3.56-7.95,7.95
	c0,7.012-5.705,12.716-12.716,12.716c-7.012,0-12.717-5.704-12.717-12.716c0-4.391-3.559-7.95-7.95-7.95s-7.95,3.56-7.95,7.95
	c0,7.012-5.705,12.716-12.716,12.716c-7.012,0-12.717-5.704-12.717-12.716c0-4.391-3.559-7.95-7.95-7.95s-7.95,3.56-7.95,7.95
	c0,15.78,12.837,28.617,28.618,28.617c8.116,0,15.453-3.396,20.667-8.842c5.213,5.447,12.552,8.842,20.668,8.842
	c15.78,0,28.617-12.837,28.617-28.617C363.747,161.684,360.187,158.125,355.797,158.125z"/>
</svg>